STARTFONT 2.1
FONT -FontForge-Open Sans-Bold-R-Normal-Sans--18-170-75-75-P-111-ISO10646-1
SIZE 17 75 75
FONTBOUNDINGBOX 18 18 -1 -4
COMMENT "Generated by fontforge, http://fontforge.sourceforge.net"
COMMENT "Digitized data copyright (c) 2010-2011, Google Corporation."
STARTPROPERTIES 40
FOUNDRY "FontForge"
FAMILY_NAME "Open Sans"
WEIGHT_NAME "Bold"
SLANT "R"
SETWIDTH_NAME "Normal"
ADD_STYLE_NAME "Sans"
PIXEL_SIZE 18
POINT_SIZE 170
RESOLUTION_X 75
RESOLUTION_Y 75
SPACING "P"
AVERAGE_WIDTH 111
CHARSET_REGISTRY "ISO10646"
CHARSET_ENCODING "1"
FONTNAME_REGISTRY ""
CHARSET_COLLECTIONS "ISO8859-2 ISO8859-5 ISO8859-7 ISO8859-9 ISO8859-4 ISO10646-1"
FONT_NAME "OpenSans-Bold"
FACE_NAME "Open Sans Bold"
COPYRIGHT "Digitized data copyright (c) 2010-2011, Google Corporation."
FONT_VERSION "1.10"
FONT_ASCENT 14
FONT_DESCENT 4
UNDERLINE_POSITION -2
UNDERLINE_THICKNESS 1
X_HEIGHT 9
CAP_HEIGHT 12
RAW_ASCENT 799
RAW_DESCENT 200
NORM_SPACE 5
RELATIVE_WEIGHT 70
RELATIVE_SETWIDTH 50
SUPERSCRIPT_X 0
SUPERSCRIPT_Y 8
SUPERSCRIPT_SIZE 11
SUBSCRIPT_X 0
SUBSCRIPT_Y 2
SUBSCRIPT_SIZE 11
FIGURE_WIDTH 10
AVG_LOWERCASE_WIDTH 112
AVG_UPPERCASE_WIDTH 127
ENDPROPERTIES
CHARS 95
STARTCHAR space
ENCODING 32
SWIDTH 259 0
DWIDTH 5 0
BBX 1 1 0 0
BITMAP
00
ENDCHAR
STARTCHAR exclam
ENCODING 33
SWIDTH 286 0
DWIDTH 5 0
BBX 3 13 1 0
BITMAP
E0
E0
E0
E0
E0
E0
E0
E0
00
00
E0
E0
E0
ENDCHAR
STARTCHAR quotedbl
ENCODING 34
SWIDTH 472 0
DWIDTH 9 0
BBX 7 5 1 8
BITMAP
EE
EE
CC
CC
CC
ENDCHAR
STARTCHAR numbersign
ENCODING 35
SWIDTH 645 0
DWIDTH 12 0
BBX 12 13 0 0
BITMAP
0CC0
0CC0
0CC0
0CC0
7FF0
7FF0
1980
1980
FFE0
FFE0
3300
3300
3300
ENDCHAR
STARTCHAR dollar
ENCODING 36
SWIDTH 570 0
DWIDTH 10 0
BBX 8 15 1 -1
BITMAP
18
3F
7F
FB
D8
F8
7C
3E
1F
1B
DF
FF
FE
18
18
ENDCHAR
STARTCHAR percent
ENCODING 37
SWIDTH 900 0
DWIDTH 16 0
BBX 14 13 1 0
BITMAP
7060
F860
D8C0
D8C0
D980
DBB8
FB7C
776C
066C
0C6C
0C6C
187C
1838
ENDCHAR
STARTCHAR ampersand
ENCODING 38
SWIDTH 750 0
DWIDTH 14 0
BBX 12 13 1 0
BITMAP
3E00
7F00
6300
6300
7700
3E00
7C30
FE70
E760
C3E0
E1C0
FFE0
3F70
ENDCHAR
STARTCHAR quotesingle
ENCODING 39
SWIDTH 266 0
DWIDTH 5 0
BBX 3 5 1 8
BITMAP
E0
E0
C0
C0
C0
ENDCHAR
STARTCHAR parenleft
ENCODING 40
SWIDTH 338 0
DWIDTH 6 0
BBX 4 16 1 -3
BITMAP
30
70
60
E0
C0
C0
C0
C0
C0
C0
C0
C0
E0
60
70
30
ENDCHAR
STARTCHAR parenright
ENCODING 41
SWIDTH 338 0
DWIDTH 6 0
BBX 4 16 1 -3
BITMAP
C0
E0
60
70
30
30
30
30
30
30
30
30
70
60
E0
C0
ENDCHAR
STARTCHAR asterisk
ENCODING 42
SWIDTH 544 0
DWIDTH 10 0
BBX 8 7 1 6
BITMAP
18
18
FF
7E
3C
7E
66
ENDCHAR
STARTCHAR plus
ENCODING 43
SWIDTH 570 0
DWIDTH 10 0
BBX 8 8 1 2
BITMAP
18
18
18
FF
FF
18
18
18
ENDCHAR
STARTCHAR comma
ENCODING 44
SWIDTH 290 0
DWIDTH 5 0
BBX 3 4 1 -2
BITMAP
E0
E0
C0
C0
ENDCHAR
STARTCHAR hyphen
ENCODING 45
SWIDTH 321 0
DWIDTH 6 0
BBX 4 2 1 4
BITMAP
F0
F0
ENDCHAR
STARTCHAR period
ENCODING 46
SWIDTH 285 0
DWIDTH 5 0
BBX 3 3 1 0
BITMAP
E0
E0
E0
ENDCHAR
STARTCHAR slash
ENCODING 47
SWIDTH 413 0
DWIDTH 7 0
BBX 5 13 1 0
BITMAP
18
18
18
38
30
30
70
60
60
E0
C0
C0
C0
ENDCHAR
STARTCHAR zero
ENCODING 48
SWIDTH 570 0
DWIDTH 10 0
BBX 8 13 1 0
BITMAP
3C
7E
E7
C3
C3
C3
C3
C3
C3
C3
E7
7E
3C
ENDCHAR
STARTCHAR one
ENCODING 49
SWIDTH 570 0
DWIDTH 10 0
BBX 5 13 2 0
BITMAP
38
78
F8
D8
18
18
18
18
18
18
18
18
18
ENDCHAR
STARTCHAR two
ENCODING 50
SWIDTH 570 0
DWIDTH 10 0
BBX 8 13 1 0
BITMAP
3C
7E
E7
C3
03
07
0E
1C
38
70
E0
FF
FF
ENDCHAR
STARTCHAR three
ENCODING 51
SWIDTH 570 0
DWIDTH 10 0
BBX 8 13 1 0
BITMAP
FC
FE
07
07
0E
3C
3E
07
03
03
07
FE
FC
ENDCHAR
STARTCHAR four
ENCODING 52
SWIDTH 570 0
DWIDTH 10 0
BBX 10 13 0 0
BITMAP
0300
0700
0F00
1F00
3B00
7300
E300
C300
FFC0
FFC0
0300
0300
0300
ENDCHAR
STARTCHAR five
ENCODING 53
SWIDTH 570 0
DWIDTH 10 0
BBX 8 13 1 0
BITMAP
FF
FF
C0
C0
C0
FC
FE
07
03
03
C7
FE
7C
ENDCHAR
STARTCHAR six
ENCODING 54
SWIDTH 570 0
DWIDTH 10 0
BBX 8 13 1 0
BITMAP
1E
3E
70
E0
C0
FC
FE
E7
C3
C3
E7
7E
3C
ENDCHAR
STARTCHAR seven
ENCODING 55
SWIDTH 570 0
DWIDTH 10 0
BBX 9 13 0 0
BITMAP
FF80
FF80
0380
0300
0700
0700
0E00
0E00
0C00
1C00
1C00
3800
3800
ENDCHAR
STARTCHAR eight
ENCODING 56
SWIDTH 570 0
DWIDTH 10 0
BBX 8 13 1 0
BITMAP
3C
7E
E7
E7
E7
7E
3C
7E
E7
E7
E7
7E
3C
ENDCHAR
STARTCHAR nine
ENCODING 57
SWIDTH 570 0
DWIDTH 10 0
BBX 8 13 1 0
BITMAP
3C
7E
E7
C3
C3
E7
FF
7F
03
07
0E
7E
78
ENDCHAR
STARTCHAR colon
ENCODING 58
SWIDTH 285 0
DWIDTH 5 0
BBX 3 10 1 0
BITMAP
E0
E0
E0
00
00
00
00
E0
E0
E0
ENDCHAR
STARTCHAR semicolon
ENCODING 59
SWIDTH 290 0
DWIDTH 5 0
BBX 3 12 1 -2
BITMAP
E0
E0
E0
00
00
00
00
00
E0
E0
C0
C0
ENDCHAR
STARTCHAR less
ENCODING 60
SWIDTH 570 0
DWIDTH 10 0
BBX 8 7 1 3
BITMAP
07
1E
78
E0
78
1E
07
ENDCHAR
STARTCHAR equal
ENCODING 61
SWIDTH 570 0
DWIDTH 10 0
BBX 8 5 1 4
BITMAP
FF
FF
00
FF
FF
ENDCHAR
STARTCHAR greater
ENCODING 62
SWIDTH 570 0
DWIDTH 10 0
BBX 8 7 1 3
BITMAP
E0
78
1E
07
1E
78
E0
ENDCHAR
STARTCHAR question
ENCODING 63
SWIDTH 477 0
DWIDTH 9 0
BBX 9 13 0 0
BITMAP
7E00
FF00
C380
0380
0700
0E00
1C00
1800
0000
0000
1800
3C00
1800
ENDCHAR
STARTCHAR at
ENCODING 64
SWIDTH 896 0
DWIDTH 16 0
BBX 14 14 1 -1
BITMAP
07C0
1FF0
3038
67DC
CFCC
CCCC
D8CC
D8CC
D8CC
CFF8
E770
7000
3FE0
0FC0
ENDCHAR
STARTCHAR A
ENCODING 65
SWIDTH 689 0
DWIDTH 12 0
BBX 12 13 0 0
BITMAP
0F00
0F00
1F80
1F80
1980
39C0
39C0
39C0
7FE0
7FE0
70E0
E070
E070
ENDCHAR
STARTCHAR B
ENCODING 66
SWIDTH 671 0
DWIDTH 12 0
BBX 9 13 2 0
BITMAP
FC00
FE00
C700
C300
C700
FE00
FF00
C380
C180
C180
C380
FF00
FE00
ENDCHAR
STARTCHAR C
ENCODING 67
SWIDTH 637 0
DWIDTH 11 0
BBX 9 13 1 0
BITMAP
0F80
3F80
7980
7000
E000
E000
E000
E000
E000
E000
7180
3F80
1F80
ENDCHAR
STARTCHAR D
ENCODING 68
SWIDTH 740 0
DWIDTH 13 0
BBX 10 13 2 0
BITMAP
FC00
FF00
C780
C180
C1C0
C0C0
C0C0
C0C0
C1C0
C180
C780
FF00
FC00
ENDCHAR
STARTCHAR E
ENCODING 69
SWIDTH 560 0
DWIDTH 10 0
BBX 7 13 2 0
BITMAP
FE
FE
C0
C0
C0
FC
FC
C0
C0
C0
C0
FE
FE
ENDCHAR
STARTCHAR F
ENCODING 70
SWIDTH 548 0
DWIDTH 10 0
BBX 7 13 2 0
BITMAP
FE
FE
C0
C0
C0
C0
FC
FC
C0
C0
C0
C0
C0
ENDCHAR
STARTCHAR G
ENCODING 71
SWIDTH 724 0
DWIDTH 13 0
BBX 11 13 1 0
BITMAP
0FC0
3FC0
78C0
7000
E000
E000
E7E0
E7E0
E060
6060
70E0
3FE0
1FC0
ENDCHAR
STARTCHAR H
ENCODING 72
SWIDTH 765 0
DWIDTH 14 0
BBX 10 13 2 0
BITMAP
C0C0
C0C0
C0C0
C0C0
C0C0
FFC0
FFC0
C0C0
C0C0
C0C0
C0C0
C0C0
C0C0
ENDCHAR
STARTCHAR I
ENCODING 73
SWIDTH 331 0
DWIDTH 6 0
BBX 2 13 2 0
BITMAP
C0
C0
C0
C0
C0
C0
C0
C0
C0
C0
C0
C0
C0
ENDCHAR
STARTCHAR J
ENCODING 74
SWIDTH 331 0
DWIDTH 6 0
BBX 5 17 -1 -4
BITMAP
18
18
18
18
18
18
18
18
18
18
18
18
18
18
38
F0
E0
ENDCHAR
STARTCHAR K
ENCODING 75
SWIDTH 664 0
DWIDTH 12 0
BBX 10 13 2 0
BITMAP
C1C0
C380
C700
CE00
DC00
F800
F000
F800
DC00
CE00
C700
C380
C1C0
ENDCHAR
STARTCHAR L
ENCODING 76
SWIDTH 564 0
DWIDTH 10 0
BBX 7 13 2 0
BITMAP
C0
C0
C0
C0
C0
C0
C0
C0
C0
C0
C0
FE
FE
ENDCHAR
STARTCHAR M
ENCODING 77
SWIDTH 942 0
DWIDTH 17 0
BBX 13 13 2 0
BITMAP
E038
E038
F078
F078
D8D8
D8D8
D8D8
CD98
CD98
CF98
C718
C718
C018
ENDCHAR
STARTCHAR N
ENCODING 78
SWIDTH 812 0
DWIDTH 15 0
BBX 11 13 2 0
BITMAP
E060
F060
F060
F860
DC60
CC60
CE60
C660
C760
C3E0
C1E0
C1E0
C0E0
ENDCHAR
STARTCHAR O
ENCODING 79
SWIDTH 795 0
DWIDTH 14 0
BBX 12 13 1 0
BITMAP
1F80
3FC0
70E0
6060
E070
E070
E070
E070
E070
6060
70E0
3FC0
1F80
ENDCHAR
STARTCHAR P
ENCODING 80
SWIDTH 627 0
DWIDTH 11 0
BBX 8 13 2 0
BITMAP
FC
FE
C7
C3
C3
C7
FE
FC
C0
C0
C0
C0
C0
ENDCHAR
STARTCHAR Q
ENCODING 81
SWIDTH 795 0
DWIDTH 14 0
BBX 12 16 1 -3
BITMAP
1F80
3FC0
70E0
E070
E070
E070
E070
E070
E070
6060
70E0
3FC0
1F80
01C0
01E0
00E0
ENDCHAR
STARTCHAR R
ENCODING 82
SWIDTH 660 0
DWIDTH 12 0
BBX 10 13 2 0
BITMAP
FE00
FF00
C380
C380
C380
C700
FE00
FC00
CE00
C700
C700
C380
C1C0
ENDCHAR
STARTCHAR S
ENCODING 83
SWIDTH 550 0
DWIDTH 10 0
BBX 8 13 1 0
BITMAP
3E
7F
E3
C0
E0
78
3E
0F
03
03
C7
FE
FC
ENDCHAR
STARTCHAR T
ENCODING 84
SWIDTH 579 0
DWIDTH 10 0
BBX 10 13 0 0
BITMAP
FFC0
FFC0
0C00
0C00
0C00
0C00
0C00
0C00
0C00
0C00
0C00
0C00
0C00
ENDCHAR
STARTCHAR U
ENCODING 85
SWIDTH 755 0
DWIDTH 14 0
BBX 10 13 2 0
BITMAP
C0C0
C0C0
C0C0
C0C0
C0C0
C0C0
C0C0
C0C0
C0C0
C0C0
E1C0
7F80
3F00
ENDCHAR
STARTCHAR V
ENCODING 86
SWIDTH 649 0
DWIDTH 12 0
BBX 12 13 0 0
BITMAP
E070
E070
70E0
70E0
30C0
39C0
39C0
1980
1F80
1F80
0F00
0F00
0F00
ENDCHAR
STARTCHAR W
ENCODING 87
SWIDTH 966 0
DWIDTH 17 0
BBX 17 13 0 0
BITMAP
E00380
E1C380
61C300
61C300
73E700
736700
336600
377600
3E3E00
3E3E00
1E3C00
1C1C00
1C1C00
ENDCHAR
STARTCHAR X
ENCODING 88
SWIDTH 666 0
DWIDTH 12 0
BBX 12 13 0 0
BITMAP
70E0
70E0
39C0
39C0
1F80
0F00
0F00
0F00
1F80
39C0
71E0
F0F0
E070
ENDCHAR
STARTCHAR Y
ENCODING 89
SWIDTH 624 0
DWIDTH 11 0
BBX 11 13 0 0
BITMAP
E0E0
F1E0
71C0
3B80
3B80
1F00
1F00
0E00
0E00
0E00
0E00
0E00
0E00
ENDCHAR
STARTCHAR Z
ENCODING 90
SWIDTH 579 0
DWIDTH 10 0
BBX 9 13 0 0
BITMAP
7F80
7F80
0380
0700
0700
0E00
1C00
1C00
3800
3800
7000
FF80
FF80
ENDCHAR
STARTCHAR bracketleft
ENCODING 91
SWIDTH 331 0
DWIDTH 6 0
BBX 5 16 1 -3
BITMAP
F8
F8
E0
E0
E0
E0
E0
E0
E0
E0
E0
E0
E0
E0
F8
F8
ENDCHAR
STARTCHAR backslash
ENCODING 92
SWIDTH 413 0
DWIDTH 7 0
BBX 5 13 1 0
BITMAP
C0
C0
C0
E0
60
60
70
30
30
38
18
18
18
ENDCHAR
STARTCHAR bracketright
ENCODING 93
SWIDTH 331 0
DWIDTH 6 0
BBX 5 16 0 -3
BITMAP
F8
F8
38
38
38
38
38
38
38
38
38
38
38
38
F8
F8
ENDCHAR
STARTCHAR asciicircum
ENCODING 94
SWIDTH 532 0
DWIDTH 10 0
BBX 8 8 1 5
BITMAP
18
3C
3C
66
66
C3
C3
81
ENDCHAR
STARTCHAR underscore
ENCODING 95
SWIDTH 411 0
DWIDTH 7 0
BBX 7 1 0 -3
BITMAP
FE
ENDCHAR
STARTCHAR grave
ENCODING 96
SWIDTH 606 0
DWIDTH 11 0
BBX 5 3 3 11
BITMAP
E0
70
18
ENDCHAR
STARTCHAR a
ENCODING 97
SWIDTH 604 0
DWIDTH 11 0
BBX 9 10 1 0
BITMAP
3E00
7F00
6380
0380
3F80
FF80
E380
E380
FF80
7980
ENDCHAR
STARTCHAR b
ENCODING 98
SWIDTH 632 0
DWIDTH 11 0
BBX 9 14 1 0
BITMAP
E000
E000
E000
E000
EE00
FF00
F380
E380
E380
E380
E380
F380
FF00
EE00
ENDCHAR
STARTCHAR c
ENCODING 99
SWIDTH 514 0
DWIDTH 9 0
BBX 7 10 1 0
BITMAP
3E
7E
E0
E0
E0
E0
E0
E0
7E
3E
ENDCHAR
STARTCHAR d
ENCODING 100
SWIDTH 632 0
DWIDTH 11 0
BBX 9 14 1 0
BITMAP
0380
0380
0380
0380
3B80
7F80
E380
E380
E380
E380
E380
E380
7F80
3B80
ENDCHAR
STARTCHAR e
ENCODING 101
SWIDTH 590 0
DWIDTH 11 0
BBX 9 10 1 0
BITMAP
3E00
7F00
E380
C180
FF80
FF80
C000
E180
7F80
3F00
ENDCHAR
STARTCHAR f
ENCODING 102
SWIDTH 387 0
DWIDTH 7 0
BBX 8 14 0 0
BITMAP
1F
3F
38
38
FE
FE
38
38
38
38
38
38
38
38
ENDCHAR
STARTCHAR g
ENCODING 103
SWIDTH 564 0
DWIDTH 10 0
BBX 10 14 0 -4
BITMAP
3FC0
7FC0
7300
6380
7380
7F00
3E00
6000
7F80
7FC0
E1C0
E1C0
FF80
7E00
ENDCHAR
STARTCHAR h
ENCODING 104
SWIDTH 657 0
DWIDTH 12 0
BBX 10 14 1 0
BITMAP
E000
E000
E000
E000
EF00
FF80
F1C0
E1C0
E1C0
E1C0
E1C0
E1C0
E1C0
E1C0
ENDCHAR
STARTCHAR i
ENCODING 105
SWIDTH 305 0
DWIDTH 6 0
BBX 3 14 1 0
BITMAP
E0
E0
E0
00
E0
E0
E0
E0
E0
E0
E0
E0
E0
E0
ENDCHAR
STARTCHAR j
ENCODING 106
SWIDTH 305 0
DWIDTH 6 0
BBX 5 18 -1 -4
BITMAP
38
38
38
00
38
38
38
38
38
38
38
38
38
38
38
38
F8
F0
ENDCHAR
STARTCHAR k
ENCODING 107
SWIDTH 620 0
DWIDTH 11 0
BBX 10 14 1 0
BITMAP
E000
E000
E000
E000
E380
E700
E700
EE00
FC00
FE00
F700
E700
E380
E1C0
ENDCHAR
STARTCHAR l
ENCODING 108
SWIDTH 305 0
DWIDTH 6 0
BBX 3 14 1 0
BITMAP
E0
E0
E0
E0
E0
E0
E0
E0
E0
E0
E0
E0
E0
E0
ENDCHAR
STARTCHAR m
ENCODING 109
SWIDTH 981 0
DWIDTH 18 0
BBX 16 10 1 0
BITMAP
EF3C
FFFE
F3CF
E1C7
E1C7
E1C7
E1C7
E1C7
E1C7
E1C7
ENDCHAR
STARTCHAR n
ENCODING 110
SWIDTH 657 0
DWIDTH 12 0
BBX 10 10 1 0
BITMAP
EF00
FF80
F1C0
E1C0
E1C0
E1C0
E1C0
E1C0
E1C0
E1C0
ENDCHAR
STARTCHAR o
ENCODING 111
SWIDTH 619 0
DWIDTH 11 0
BBX 9 10 1 0
BITMAP
3E00
7F00
E380
E380
E380
E380
E380
E380
7F00
3E00
ENDCHAR
STARTCHAR p
ENCODING 112
SWIDTH 632 0
DWIDTH 11 0
BBX 9 14 1 -4
BITMAP
EE00
FF00
F380
E380
E380
E380
E380
F380
FF00
EE00
E000
E000
E000
E000
ENDCHAR
STARTCHAR q
ENCODING 113
SWIDTH 632 0
DWIDTH 11 0
BBX 9 14 1 -4
BITMAP
3B80
7F80
E380
E380
E380
E380
E380
E380
7F80
3B80
0380
0380
0380
0380
ENDCHAR
STARTCHAR r
ENCODING 114
SWIDTH 454 0
DWIDTH 8 0
BBX 7 10 1 0
BITMAP
EE
FE
FC
F0
E0
E0
E0
E0
E0
E0
ENDCHAR
STARTCHAR s
ENCODING 115
SWIDTH 497 0
DWIDTH 9 0
BBX 7 10 1 0
BITMAP
7C
FE
C6
E0
78
3C
0E
C6
FE
7C
ENDCHAR
STARTCHAR t
ENCODING 116
SWIDTH 434 0
DWIDTH 8 0
BBX 7 12 0 0
BITMAP
30
30
FE
FE
30
30
30
30
30
38
3C
1C
ENDCHAR
STARTCHAR u
ENCODING 117
SWIDTH 657 0
DWIDTH 12 0
BBX 10 10 1 0
BITMAP
E1C0
E1C0
E1C0
E1C0
E1C0
E1C0
E1C0
E3C0
7FC0
3DC0
ENDCHAR
STARTCHAR v
ENCODING 118
SWIDTH 568 0
DWIDTH 10 0
BBX 10 10 0 0
BITMAP
E1C0
E1C0
7380
7380
3300
3F00
3F00
1E00
1E00
1E00
ENDCHAR
STARTCHAR w
ENCODING 119
SWIDTH 855 0
DWIDTH 15 0
BBX 15 10 0 0
BITMAP
E00E
E00E
638C
739C
76DC
36D8
36D8
3C78
1C70
1C70
ENDCHAR
STARTCHAR x
ENCODING 120
SWIDTH 578 0
DWIDTH 10 0
BBX 8 10 1 0
BITMAP
C3
E7
66
7E
3C
3C
7E
66
E7
C3
ENDCHAR
STARTCHAR y
ENCODING 121
SWIDTH 568 0
DWIDTH 10 0
BBX 10 14 0 -4
BITMAP
E1C0
E1C0
7380
7380
3300
3F00
3F00
1E00
1E00
0E00
0C00
1C00
7800
7000
ENDCHAR
STARTCHAR z
ENCODING 122
SWIDTH 487 0
DWIDTH 9 0
BBX 8 10 0 0
BITMAP
FF
FF
07
0E
1C
38
70
E0
FF
FF
ENDCHAR
STARTCHAR braceleft
ENCODING 123
SWIDTH 394 0
DWIDTH 7 0
BBX 6 16 0 -3
BITMAP
1C
1C
38
38
38
38
38
F0
F0
38
38
38
38
38
1C
1C
ENDCHAR
STARTCHAR bar
ENCODING 124
SWIDTH 550 0
DWIDTH 10 0
BBX 2 18 4 -4
BITMAP
C0
C0
C0
C0
C0
C0
C0
C0
C0
C0
C0
C0
C0
C0
C0
C0
C0
C0
ENDCHAR
STARTCHAR braceright
ENCODING 125
SWIDTH 394 0
DWIDTH 7 0
BBX 6 16 1 -3
BITMAP
E0
E0
70
70
70
70
70
3C
3C
70
70
70
70
70
E0
E0
ENDCHAR
STARTCHAR asciitilde
ENCODING 126
SWIDTH 570 0
DWIDTH 10 0
BBX 8 3 1 5
BITMAP
71
FF
8E
ENDCHAR
ENDFONT
